<svg xmlns="http://www.w3.org/2000/svg" xmlns:xlink="http://www.w3.org/1999/xlink" width="150" zoomAndPan="magnify" viewBox="0 0 112.5 112.499997" height="150" preserveAspectRatio="xMidYMid meet" version="1.0"><defs><g/><clipPath id="id1"><path d="M 0 0 L 112.003906 0 L 112.003906 112.003906 L 0 112.003906 Z M 0 0 " clip-rule="nonzero"/></clipPath></defs><g clip-path="url(#id1)"><path fill="#ffffff" d="M 0 0 L 112.5 0 L 112.5 120 L 0 120 Z M 0 0 " fill-opacity="1" fill-rule="nonzero"/><path fill="#ffffff" d="M 0 0 L 112.5 0 L 112.5 112.5 L 0 112.5 Z M 0 0 " fill-opacity="1" fill-rule="nonzero"/><path fill="#000000" d="M 0 0 L 112.5 0 L 112.5 112.5 L 0 112.5 Z M 0 0 " fill-opacity="1" fill-rule="nonzero"/></g><g fill="#ff00ff" fill-opacity="1"><g transform="translate(9.076951, 72.474755)"><g><path d="M 38.839844 0 L 38.839844 -7.398438 L 9.246094 -7.398438 L 9.246094 -29.59375 L 38.839844 -29.59375 L 38.839844 -36.988281 L 9.246094 -36.988281 C 5.179688 -36.988281 1.847656 -33.660156 1.847656 -29.59375 L 1.847656 -7.398438 C 1.847656 -3.328125 5.179688 0 9.246094 0 Z M 38.839844 0 "/></g></g></g><g fill="#ff00ff" fill-opacity="1"><g transform="translate(57.067272, 72.474755)"><g><path d="M 38.839844 -36.988281 L 1.847656 -36.988281 L 1.847656 -29.59375 L 16.644531 -29.59375 L 16.644531 0 L 24.042969 0 L 24.042969 -29.59375 L 38.839844 -29.59375 Z M 38.839844 -36.988281 "/></g></g></g><g fill="#00ffff" fill-opacity="1"><g transform="translate(14.709978, 73.775242)"><g><path d="M 38.839844 0 L 38.839844 -7.398438 L 9.246094 -7.398438 L 9.246094 -29.59375 L 38.839844 -29.59375 L 38.839844 -36.988281 L 9.246094 -36.988281 C 5.179688 -36.988281 1.847656 -33.660156 1.847656 -29.59375 L 1.847656 -7.398438 C 1.847656 -3.328125 5.179688 0 9.246094 0 Z M 38.839844 0 "/></g></g></g><g fill="#00ffff" fill-opacity="1"><g transform="translate(62.700299, 73.775242)"><g><path d="M 38.839844 -36.988281 L 1.847656 -36.988281 L 1.847656 -29.59375 L 16.644531 -29.59375 L 16.644531 0 L 24.042969 0 L 24.042969 -29.59375 L 38.839844 -29.59375 Z M 38.839844 -36.988281 "/></g></g></g><g fill="#ffffff" fill-opacity="1"><g transform="translate(11.893464, 73.124998)"><g><path d="M 38.839844 0 L 38.839844 -7.398438 L 9.246094 -7.398438 L 9.246094 -29.59375 L 38.839844 -29.59375 L 38.839844 -36.988281 L 9.246094 -36.988281 C 5.179688 -36.988281 1.847656 -33.660156 1.847656 -29.59375 L 1.847656 -7.398438 C 1.847656 -3.328125 5.179688 0 9.246094 0 Z M 38.839844 0 "/></g></g></g><g fill="#ffffff" fill-opacity="1"><g transform="translate(59.883786, 73.124998)"><g><path d="M 38.839844 -36.988281 L 1.847656 -36.988281 L 1.847656 -29.59375 L 16.644531 -29.59375 L 16.644531 0 L 24.042969 0 L 24.042969 -29.59375 L 38.839844 -29.59375 Z M 38.839844 -36.988281 "/></g></g></g></svg>