<svg xmlns="http://www.w3.org/2000/svg" xmlns:xlink="http://www.w3.org/1999/xlink" width="40" zoomAndPan="magnify" viewBox="0 0 30 30.000001" height="40" preserveAspectRatio="xMidYMid meet" version="1.0"><defs><g/><clipPath id="id1"><path d="M 0.484375 0 L 29.515625 0 L 29.515625 29.03125 L 0.484375 29.03125 Z M 0.484375 0 " clip-rule="nonzero"/></clipPath></defs><g clip-path="url(#id1)"><path fill="#ffffff" d="M 0.484375 0 L 29.515625 0 L 29.515625 36.289062 L 0.484375 36.289062 Z M 0.484375 0 " fill-opacity="1" fill-rule="nonzero"/><path fill="#ffffff" d="M 0.484375 0 L 29.515625 0 L 29.515625 29.03125 L 0.484375 29.03125 Z M 0.484375 0 " fill-opacity="1" fill-rule="nonzero"/><path fill="#000000" d="M 0.484375 0 L 29.515625 0 L 29.515625 29.03125 L 0.484375 29.03125 Z M 0.484375 0 " fill-opacity="1" fill-rule="nonzero"/></g><g fill="#ff00ff" fill-opacity="1"><g transform="translate(2.82631, 18.703165)"><g><path d="M 10.023438 0 L 10.023438 -1.910156 L 2.386719 -1.910156 L 2.386719 -7.636719 L 10.023438 -7.636719 L 10.023438 -9.546875 L 2.386719 -9.546875 C 1.335938 -9.546875 0.476562 -8.6875 0.476562 -7.636719 L 0.476562 -1.910156 C 0.476562 -0.859375 1.335938 0 2.386719 0 Z M 10.023438 0 "/></g></g></g><g fill="#ff00ff" fill-opacity="1"><g transform="translate(15.21091, 18.703165)"><g><path d="M 10.023438 -9.546875 L 0.476562 -9.546875 L 0.476562 -7.636719 L 4.296875 -7.636719 L 4.296875 0 L 6.203125 0 L 6.203125 -7.636719 L 10.023438 -7.636719 Z M 10.023438 -9.546875 "/></g></g></g><g fill="#00ffff" fill-opacity="1"><g transform="translate(4.279994, 19.038774)"><g><path d="M 10.023438 0 L 10.023438 -1.910156 L 2.386719 -1.910156 L 2.386719 -7.636719 L 10.023438 -7.636719 L 10.023438 -9.546875 L 2.386719 -9.546875 C 1.335938 -9.546875 0.476562 -8.6875 0.476562 -7.636719 L 0.476562 -1.910156 C 0.476562 -0.859375 1.335938 0 2.386719 0 Z M 10.023438 0 "/></g></g></g><g fill="#00ffff" fill-opacity="1"><g transform="translate(16.664594, 19.038774)"><g><path d="M 10.023438 -9.546875 L 0.476562 -9.546875 L 0.476562 -7.636719 L 4.296875 -7.636719 L 4.296875 0 L 6.203125 0 L 6.203125 -7.636719 L 10.023438 -7.636719 Z M 10.023438 -9.546875 "/></g></g></g><g fill="#ffffff" fill-opacity="1"><g transform="translate(3.553152, 18.87097)"><g><path d="M 10.023438 0 L 10.023438 -1.910156 L 2.386719 -1.910156 L 2.386719 -7.636719 L 10.023438 -7.636719 L 10.023438 -9.546875 L 2.386719 -9.546875 C 1.335938 -9.546875 0.476562 -8.6875 0.476562 -7.636719 L 0.476562 -1.910156 C 0.476562 -0.859375 1.335938 0 2.386719 0 Z M 10.023438 0 "/></g></g></g><g fill="#ffffff" fill-opacity="1"><g transform="translate(15.937752, 18.87097)"><g><path d="M 10.023438 -9.546875 L 0.476562 -9.546875 L 0.476562 -7.636719 L 4.296875 -7.636719 L 4.296875 0 L 6.203125 0 L 6.203125 -7.636719 L 10.023438 -7.636719 Z M 10.023438 -9.546875 "/></g></g></g></svg>